<?xml version="1.0" standalone="no"?>
<!DOCTYPE svg PUBLIC "-//W3C//DTD SVG 20010904//EN"
 "http://www.w3.org/TR/2001/REC-SVG-20010904/DTD/svg10.dtd">
<svg version="1.0" xmlns="http://www.w3.org/2000/svg"
 width="225.000000pt" height="225.000000pt" viewBox="0 0 225.000000 225.000000"
 preserveAspectRatio="xMidYMid meet">

<g transform="translate(0.000000,225.000000) scale(0.100000,-0.100000)"
fill="#000000" stroke="none">
<path d="M999 2240 c-380 -43 -714 -280 -880 -625 -180 -372 -149 -784 83
-1129 93 -138 271 -293 426 -370 133 -67 343 -116 497 -116 154 0 365 49 497
116 286 144 508 417 588 721 162 620 -235 1260 -860 1386 -98 20 -256 28 -351
17z m79 -127 c3 -34 10 -31 -119 -49 -64 -8 -71 -14 -59 -53 7 -26 6 -33 -8
-38 -155 -54 -270 -118 -356 -198 l-39 -36 -26 25 -27 26 -31 -33 c-16 -17
-42 -49 -58 -69 -31 -43 -40 -45 -73 -20 l-23 18 45 61 c89 118 233 236 371
305 107 53 270 97 350 95 48 -2 50 -3 53 -34z m252 22 c103 -22 238 -75 331
-131 95 -57 218 -169 284 -256 l46 -62 -23 -18 c-33 -25 -42 -23 -73 20 -16
20 -42 52 -58 69 l-31 33 -27 -26 -26 -25 -39 36 c-86 80 -201 144 -356 198
-14 5 -15 12 -8 38 12 39 5 45 -59 53 -125 17 -121 16 -121 45 0 15 3 31 7 34
11 11 78 8 153 -8z m-124 -323 c8 -5 6 -48 -7 -152 -23 -186 -24 -200 -1 -200
30 0 118 -46 159 -83 l39 -35 133 100 c73 55 139 97 146 94 17 -6 88 -133 81
-144 -3 -5 -73 -37 -156 -73 l-151 -64 8 -40 c9 -45 10 -132 3 -185 l-5 -34
153 -66 c83 -35 152 -70 152 -76 0 -15 -75 -137 -87 -141 -5 -2 -69 42 -143
97 l-133 100 -44 -41 c-44 -41 -119 -79 -154 -79 -24 0 -24 -11 0 -200 10 -80
16 -147 14 -150 -5 -5 -171 -5 -176 1 -2 2 4 69 14 149 24 189 24 200 0 200
-35 0 -110 39 -155 80 l-44 41 -133 -101 c-73 -55 -137 -99 -142 -97 -12 4
-87 126 -87 142 0 6 32 24 71 41 39 16 107 45 152 65 l82 36 -5 34 c-7 52 -6
139 3 184 l8 40 -151 64 c-83 36 -153 68 -156 73 -7 11 64 138 81 144 7 3 73
-40 146 -95 l133 -100 39 36 c41 37 129 83 160 83 22 0 21 14 -2 200 -13 104
-15 147 -7 152 6 4 43 8 81 8 39 0 75 -4 81 -8z m-961 -234 c14 -6 25 -15 25
-19 0 -4 -13 -41 -30 -82 -32 -80 -36 -97 -21 -97 5 0 21 -4 34 -9 l24 -9 -13
-69 c-22 -111 -16 -298 12 -394 3 -13 -4 -18 -32 -23 -33 -7 -35 -9 -29 -34 4
-15 18 -55 32 -90 14 -35 23 -65 21 -66 -9 -9 -48 -26 -56 -26 -14 0 -68 134
-87 212 -39 162 -39 355 0 500 21 81 75 218 85 218 5 0 21 -5 35 -12z m1834
-68 c83 -215 98 -420 46 -638 -19 -78 -73 -212 -87 -212 -8 0 -47 17 -56 26
-2 1 7 31 21 66 14 35 28 75 32 90 6 25 4 27 -29 34 -28 5 -35 10 -32 23 28
96 34 283 12 394 l-13 69 24 9 c13 5 29 9 34 9 15 0 11 17 -21 97 -16 41 -30
78 -30 82 0 9 39 29 57 30 6 1 25 -35 42 -79z m-1699 -980 c29 -39 57 -70 60
-70 4 0 17 11 29 24 l23 24 76 -61 c87 -70 177 -121 272 -153 58 -19 65 -24
61 -45 -9 -55 -10 -53 87 -69 88 -14 92 -16 92 -40 0 -46 -9 -50 -89 -39 -162
23 -337 91 -466 184 -68 49 -189 168 -235 233 l-31 43 23 19 c13 11 28 19 33
20 6 0 35 -32 65 -70z m1588 50 l23 -19 -31 -43 c-46 -65 -167 -184 -235 -233
-129 -93 -304 -161 -466 -184 -80 -11 -89 -7 -89 39 0 24 4 26 93 40 96 16 95
14 86 69 -4 21 3 26 63 46 109 37 278 140 328 199 12 15 16 14 42 -11 l29 -27
25 29 c13 17 39 49 56 73 35 47 43 50 76 22z"/>
</g>
</svg>
